<mxfile host="app.diagrams.net" modified="2024-04-19T07:05:36.215Z" agent="Mozilla/5.0 (Windows NT 10.0; Win64; x64) AppleWebKit/537.36 (KHTML, like Gecko) Chrome/123.0.0.0 Safari/537.36" version="24.2.5" etag="EtroDrI73PAD6jc__WVC" type="github">
  <diagram name="Strona-1" id="VuMP93nXgsQHlhew3jvd">
    <mxGraphModel>
      <root>
        <mxCell id="0" />
        <mxCell id="1" parent="0" />
      </root>
    </mxGraphModel>
  </diagram>
</mxfile>
